<svg id="Calque_1" data-name="Calque 1" xmlns="http://www.w3.org/2000/svg" viewBox="0 0 296.31 158.95"><defs><style>.cls-1{fill:#fff;}.cls-2{fill:#3c3c3c;}.cls-3{fill:#c6a17b;}</style></defs><path class="cls-1" d="M428.18,214.89h-146A16.11,16.11,0,0,1,266,231v80.42a16.1,16.1,0,0,1,16.11,16.1H428.18a16.1,16.1,0,0,1,16.11-16.1V231A16.11,16.11,0,0,1,428.18,214.89Z" transform="translate(-205.87 -170.3)"/><path class="cls-2" d="M429.91,329.25H280.4v-1.73A14.4,14.4,0,0,0,266,313.14H264.3V229.27H266a14.4,14.4,0,0,0,14.38-14.38v-1.72H429.91v1.72a14.4,14.4,0,0,0,14.38,14.38H446v83.87h-1.72a14.4,14.4,0,0,0-14.38,14.38ZM283.77,325.8H426.54a17.86,17.86,0,0,1,16-16V232.64a17.88,17.88,0,0,1-16-16H283.77a17.88,17.88,0,0,1-16,16v77.14A17.86,17.86,0,0,1,283.77,325.8Z" transform="translate(-205.87 -170.3)"/><path class="cls-2" d="M426.05,318.21H284.26v-1.46a6.28,6.28,0,0,0-6.27-6.27h-1.45V231.93H278a6.27,6.27,0,0,0,6.27-6.27v-1.45H426.05v1.45a6.27,6.27,0,0,0,6.27,6.27h1.45v78.55h-1.45a6.28,6.28,0,0,0-6.27,6.27Zm-139-2.91H423.25a9.2,9.2,0,0,1,7.61-7.61v-73a9.2,9.2,0,0,1-7.61-7.6H287.06a9.19,9.19,0,0,1-7.61,7.6v73A9.19,9.19,0,0,1,287.06,315.3Z" transform="translate(-205.87 -170.3)"/><path class="cls-2" d="M297.9,305.18a.86.86,0,0,1-.86-.86V235.09a.86.86,0,1,1,1.72,0v69.23A.86.86,0,0,1,297.9,305.18Z" transform="translate(-205.87 -170.3)"/><path class="cls-2" d="M412.41,305.18a.87.87,0,0,1-.86-.86V235.09a.86.86,0,1,1,1.72,0v69.23A.86.86,0,0,1,412.41,305.18Z" transform="translate(-205.87 -170.3)"/><rect class="cls-2" x="95.61" y="81.37" width="107.36" height="34.72"/><path class="cls-2" d="M270.69,239.92c0,3-2.09,5.49-4.67,5.49v-11C268.6,234.42,270.69,236.88,270.69,239.92Z" transform="translate(-205.87 -170.3)"/><path class="cls-2" d="M270.69,255.06c0,3-2.09,5.5-4.67,5.5v-11C268.6,249.56,270.69,252,270.69,255.06Z" transform="translate(-205.87 -170.3)"/><path class="cls-2" d="M270.69,270.2c0,3-2.09,5.5-4.67,5.5v-11C268.6,264.71,270.69,267.17,270.69,270.2Z" transform="translate(-205.87 -170.3)"/><path class="cls-2" d="M270.69,285.35c0,3-2.09,5.5-4.67,5.5v-11C268.6,279.85,270.69,282.32,270.69,285.35Z" transform="translate(-205.87 -170.3)"/><path class="cls-2" d="M270.69,300.49c0,3-2.09,5.5-4.67,5.5V295C268.6,295,270.69,297.46,270.69,300.49Z" transform="translate(-205.87 -170.3)"/><path class="cls-2" d="M444.29,234.42v11c-2.58,0-4.66-2.46-4.66-5.49S441.71,234.42,444.29,234.42Z" transform="translate(-205.87 -170.3)"/><path class="cls-2" d="M444.29,249.56v11c-2.58,0-4.66-2.47-4.66-5.5S441.71,249.56,444.29,249.56Z" transform="translate(-205.87 -170.3)"/><path class="cls-2" d="M444.29,264.71v11c-2.58,0-4.66-2.46-4.66-5.5S441.71,264.71,444.29,264.71Z" transform="translate(-205.87 -170.3)"/><path class="cls-2" d="M444.29,279.85v11c-2.58,0-4.66-2.46-4.66-5.5S441.71,279.85,444.29,279.85Z" transform="translate(-205.87 -170.3)"/><path class="cls-2" d="M444.29,295v11c-2.58,0-4.66-2.46-4.66-5.5S441.71,295,444.29,295Z" transform="translate(-205.87 -170.3)"/><path class="cls-2" d="M321.14,232h4.48a5.32,5.32,0,0,1,3.41.89,3.34,3.34,0,0,1,1.07,2.74v1a2.89,2.89,0,0,1-2,3.11v.05a2.3,2.3,0,0,1,1.56,1.1,4.74,4.74,0,0,1,.45,2.24v2.77a7.86,7.86,0,0,0,.06,1.09,2.19,2.19,0,0,0,.27.83h-3.08a3.42,3.42,0,0,1-.22-.72,8.75,8.75,0,0,1-.05-1.22v-2.89a2.14,2.14,0,0,0-.43-1.51,2,2,0,0,0-1.47-.43h-1v6.77h-3Zm4.12,6.76a2.07,2.07,0,0,0,1.37-.38,1.59,1.59,0,0,0,.45-1.28v-1.22a1.72,1.72,0,0,0-.37-1.24,1.56,1.56,0,0,0-1.17-.39h-1.37v4.51Z" transform="translate(-205.87 -170.3)"/><path class="cls-2" d="M335.52,232h8.25v2.25h-5.23v4.18h4.15v2.25h-4.15v4.85h5.23v2.26h-8.25Z" transform="translate(-205.87 -170.3)"/><path class="cls-2" d="M351.16,234.23H348V232h9.34v2.25h-3.16v13.54h-3Z" transform="translate(-205.87 -170.3)"/><path class="cls-2" d="M362.1,232h4.48a5.33,5.33,0,0,1,3.41.89,3.37,3.37,0,0,1,1.07,2.74v1a2.89,2.89,0,0,1-2,3.11v.05a2.3,2.3,0,0,1,1.56,1.1,4.74,4.74,0,0,1,.45,2.24v2.77a10.24,10.24,0,0,0,.05,1.09,2.4,2.4,0,0,0,.28.83h-3.08a3.42,3.42,0,0,1-.22-.72,8.32,8.32,0,0,1-.06-1.22v-2.89a2.1,2.1,0,0,0-.42-1.51,2,2,0,0,0-1.47-.43h-1.05v6.77h-3Zm4.12,6.76a2,2,0,0,0,1.36-.38,1.56,1.56,0,0,0,.46-1.28v-1.22a1.77,1.77,0,0,0-.37-1.24,1.56,1.56,0,0,0-1.17-.39h-1.38v4.51Z" transform="translate(-205.87 -170.3)"/><path class="cls-2" d="M377.44,247a3.71,3.71,0,0,1-1.18-2.94v-8.3a3.68,3.68,0,0,1,1.18-2.93,6.11,6.11,0,0,1,6.82,0,3.68,3.68,0,0,1,1.18,2.93V244a3.74,3.74,0,0,1-1.18,2.94,6.16,6.16,0,0,1-6.82,0Zm5-2.78v-8.62a1.57,1.57,0,0,0-3.13,0v8.62a1.57,1.57,0,0,0,3.13,0Z" transform="translate(-205.87 -170.3)"/><path class="cls-2" d="M323.05,292.29h3.8l2.94,9.45h0v-9.45h2.7v15.79h-3.11l-3.63-11.53h-.05v11.53h-2.7Z" transform="translate(-205.87 -170.3)"/><path class="cls-2" d="M338.09,292.29h3v15.79h-3Z" transform="translate(-205.87 -170.3)"/><path class="cls-2" d="M347.6,307.28a3.75,3.75,0,0,1-1.16-2.95V296a3.75,3.75,0,0,1,1.16-2.94,6,6,0,0,1,6.71,0,3.71,3.71,0,0,1,1.15,2.94v1.35H352.6v-1.51a1.57,1.57,0,0,0-3.13,0v8.64a1.57,1.57,0,0,0,3.13,0v-3.09h-1.51v-2.25h4.37v5.16a3.75,3.75,0,0,1-1.15,2.95,6,6,0,0,1-6.71,0Z" transform="translate(-205.87 -170.3)"/><path class="cls-2" d="M360.71,292.29h3v6.43H367v-6.43h3v15.79h-3V301h-3.24v7.11h-3Z" transform="translate(-205.87 -170.3)"/><path class="cls-2" d="M377.92,294.54h-3.16v-2.25h9.35v2.25h-3.17v13.54h-3Z" transform="translate(-205.87 -170.3)"/><path class="cls-3" d="M354,205.29a1.78,1.78,0,0,1-1.78-1.76c0-3.21-.05-6.41-.06-9.62a1.79,1.79,0,0,1,1.78-1.79h0a1.78,1.78,0,0,1,1.78,1.78q0,4.8.06,9.6a1.78,1.78,0,0,1-1.76,1.79Z" transform="translate(-205.87 -170.3)"/><path class="cls-3" d="M354,186.63h0a1.78,1.78,0,0,1-1.78-1.78q0-6.39.07-12.79A1.79,1.79,0,0,1,354,170.3h0a1.78,1.78,0,0,1,1.76,1.8q0,6.38-.07,12.76A1.77,1.77,0,0,1,354,186.63Z" transform="translate(-205.87 -170.3)"/><path class="cls-3" d="M354,205.29a1.78,1.78,0,0,1-1.78-1.76c0-3.21-.05-6.41-.06-9.62a1.79,1.79,0,0,1,1.78-1.79h0a1.78,1.78,0,0,1,1.78,1.78q0,4.8.06,9.6a1.78,1.78,0,0,1-1.76,1.79Z" transform="translate(-205.87 -170.3)"/><path class="cls-3" d="M354,186.63h0a1.78,1.78,0,0,1-1.78-1.78q0-6.39.07-12.79A1.79,1.79,0,0,1,354,170.3h0a1.78,1.78,0,0,1,1.76,1.8q0,6.38-.07,12.76A1.77,1.77,0,0,1,354,186.63Z" transform="translate(-205.87 -170.3)"/><path class="cls-3" d="M322.89,204.05a1.78,1.78,0,0,1-1.76-1.52,81.89,81.89,0,0,0-3.56-13.47,80.49,80.49,0,0,1-3.19-11.71,1.78,1.78,0,0,1,3.52-.57A76.42,76.42,0,0,0,321,188,84.19,84.19,0,0,1,324.65,202a1.77,1.77,0,0,1-1.5,2A1.14,1.14,0,0,1,322.89,204.05Z" transform="translate(-205.87 -170.3)"/><path class="cls-3" d="M289.73,208.87a1.78,1.78,0,0,1-1.62-1,109.61,109.61,0,0,0-8.75-15.15,1.78,1.78,0,0,1,2.95-2,115.09,115.09,0,0,1,9,15.64,1.79,1.79,0,0,1-.86,2.37A1.86,1.86,0,0,1,289.73,208.87Z" transform="translate(-205.87 -170.3)"/><path class="cls-3" d="M258.72,224.93a1.78,1.78,0,0,1-1.26-.52l-8.2-8.2a1.78,1.78,0,1,1,2.52-2.52l8.2,8.2a1.78,1.78,0,0,1-1.26,3Z" transform="translate(-205.87 -170.3)"/><path class="cls-3" d="M254,262.47a1.7,1.7,0,0,1-.89-.24l-7.46-4.29a1.78,1.78,0,0,1,1.77-3.09c2.49,1.43,5,2.86,7.47,4.3a1.78,1.78,0,0,1-.89,3.32Z" transform="translate(-205.87 -170.3)"/><path class="cls-3" d="M238.43,253.54a1.77,1.77,0,0,1-.88-.24c-4.52-2.59-8-4.6-11.19-6.5a1.78,1.78,0,0,1,1.8-3.07c3.22,1.9,6.66,3.9,11.16,6.48a1.78,1.78,0,0,1-.89,3.33Z" transform="translate(-205.87 -170.3)"/><path class="cls-3" d="M251.29,292.4a1.73,1.73,0,0,1-.5-.07c-2.55-.73-5.23-1.47-8.21-2.25a1.78,1.78,0,0,1,.9-3.45c3,.79,5.72,1.54,8.3,2.28a1.78,1.78,0,0,1-.49,3.49Z" transform="translate(-205.87 -170.3)"/><path class="cls-3" d="M234.74,288a2.1,2.1,0,0,1-.43,0L226,285.9a1.78,1.78,0,1,1,.87-3.45l8.3,2.06a1.78,1.78,0,0,1-.43,3.51Z" transform="translate(-205.87 -170.3)"/><path class="cls-3" d="M217.46,283.66a1.82,1.82,0,0,1-.46-.06l-4.84-1.31a1.78,1.78,0,0,1,1-3.44q2.4.67,4.8,1.3a1.78,1.78,0,0,1-.45,3.51Z" transform="translate(-205.87 -170.3)"/><path class="cls-3" d="M252.62,320.23H228a1.79,1.79,0,0,1,0-3.57h24.66a1.78,1.78,0,1,1,0,3.56Z" transform="translate(-205.87 -170.3)"/><path class="cls-3" d="M207.65,320.23a1.78,1.78,0,1,1,0-3.56h11.6a1.78,1.78,0,0,1,0,3.56Z" transform="translate(-205.87 -170.3)"/><path class="cls-3" d="M455.36,320.23a1.78,1.78,0,1,1,0-3.56h10.8a1.78,1.78,0,0,1,0,3.56Z" transform="translate(-205.87 -170.3)"/><path class="cls-3" d="M481.65,320.23h-6.49a1.79,1.79,0,0,1,0-3.57h6.49a1.79,1.79,0,0,1,0,3.57Z" transform="translate(-205.87 -170.3)"/><path class="cls-3" d="M500.4,320.23H490.3a1.78,1.78,0,0,1,0-3.56h10.1a1.78,1.78,0,1,1,0,3.56Z" transform="translate(-205.87 -170.3)"/><path class="cls-3" d="M459.27,292a1.78,1.78,0,0,1-.42-3.51c2.92-.72,6.09-1.58,10-2.7a1.79,1.79,0,0,1,1,3.43c-3.93,1.12-7.13,2-10.11,2.73A1.54,1.54,0,0,1,459.27,292Z" transform="translate(-205.87 -170.3)"/><path class="cls-3" d="M477.8,286.84a1.78,1.78,0,0,1-.5-3.49c5.62-1.64,11.67-3.32,17.77-4.53a1.78,1.78,0,0,1,.69,3.5c-6,1.18-11.92,2.84-17.46,4.45A1.77,1.77,0,0,1,477.8,286.84Z" transform="translate(-205.87 -170.3)"/><path class="cls-3" d="M459.42,259.38a1.78,1.78,0,0,1-1-3.25c2.69-1.83,5.46-3.61,8.23-5.27a1.78,1.78,0,1,1,1.84,3c-2.72,1.63-5.43,3.37-8.07,5.17A1.83,1.83,0,0,1,459.42,259.38Z" transform="translate(-205.87 -170.3)"/><path class="cls-3" d="M475.11,249.91a1.78,1.78,0,0,1-.84-3.36c1.91-1,3.84-2,5.75-2.89a1.78,1.78,0,1,1,1.53,3.21c-1.86.89-3.75,1.84-5.61,2.83A1.79,1.79,0,0,1,475.11,249.91Z" transform="translate(-205.87 -170.3)"/><path class="cls-3" d="M450.05,224.21a1.78,1.78,0,0,1-1.26-3l7.48-7.48a1.78,1.78,0,0,1,2.52,2.52l-7.48,7.48A1.8,1.8,0,0,1,450.05,224.21Z" transform="translate(-205.87 -170.3)"/><path class="cls-3" d="M418.69,208.23a1.8,1.8,0,0,1-.89-.24,1.78,1.78,0,0,1-.65-2.43l8.52-14.76a1.78,1.78,0,1,1,3.08,1.78l-8.52,14.76A1.77,1.77,0,0,1,418.69,208.23Z" transform="translate(-205.87 -170.3)"/><path class="cls-3" d="M385.16,204.05h-.22a1.78,1.78,0,0,1-1.55-2,68,68,0,0,1,3.55-13.69,73.71,73.71,0,0,0,3.21-11.59,1.78,1.78,0,1,1,3.52.58,78.8,78.8,0,0,1-3.35,12.15,64.43,64.43,0,0,0-3.4,13A1.78,1.78,0,0,1,385.16,204.05Z" transform="translate(-205.87 -170.3)"/><path class="cls-3" d="M305.77,277.34V259.79h4.93q7.4,0,7.4,8.56a9.93,9.93,0,0,1-2,6.54,6.63,6.63,0,0,1-5.38,2.45ZM308.9,263v11.12h1.56a3.77,3.77,0,0,0,3.19-1.54,6.85,6.85,0,0,0,1.16-4.2,6.18,6.18,0,0,0-1.15-3.94,3.89,3.89,0,0,0-3.22-1.44Z" transform="translate(-205.87 -170.3)"/><path class="cls-3" d="M329.78,259.73l-4.51,17.62h-3.35l-4.46-17.62h3.18L323.37,272a11,11,0,0,1,.27,1.76h.05a13.75,13.75,0,0,1,.29-1.81l2.71-12.21Z" transform="translate(-205.87 -170.3)"/><path class="cls-3" d="M330.71,277.41V259.75h5q7.58,0,7.57,8.61a9.88,9.88,0,0,1-2.07,6.58,6.79,6.79,0,0,1-5.5,2.47Zm3.2-14.42v11.19h1.59a3.89,3.89,0,0,0,3.26-1.55,6.78,6.78,0,0,0,1.18-4.22,6.12,6.12,0,0,0-1.17-4,4,4,0,0,0-3.29-1.45Z" transform="translate(-205.87 -170.3)"/><path class="cls-3" d="M351,276.46v-3.81a8.11,8.11,0,0,0,2.42,1.3,8.31,8.31,0,0,0,2.64.44,6,6,0,0,0,1.36-.14,3,3,0,0,0,1-.36,1.62,1.62,0,0,0,.58-.55,1.25,1.25,0,0,0,.19-.68,1.38,1.38,0,0,0-.31-.89A3,3,0,0,0,358,271a8.81,8.81,0,0,0-1.27-.64c-.48-.21-1-.42-1.57-.63a8.23,8.23,0,0,1-3.21-2,4.26,4.26,0,0,1-1.05-2.9,4.43,4.43,0,0,1,.57-2.3A4.71,4.71,0,0,1,353,261a7.29,7.29,0,0,1,2.3-.92,12.91,12.91,0,0,1,2.76-.29,18.84,18.84,0,0,1,2.54.16,11.18,11.18,0,0,1,2.05.5V264a6.44,6.44,0,0,0-1-.53,8.16,8.16,0,0,0-1.12-.37,9.16,9.16,0,0,0-1.14-.22,8.29,8.29,0,0,0-1.09-.07,6.33,6.33,0,0,0-1.28.12,3.78,3.78,0,0,0-1,.35,1.72,1.72,0,0,0-.61.55,1.16,1.16,0,0,0-.22.7,1.28,1.28,0,0,0,.24.77,2.69,2.69,0,0,0,.69.64,6.84,6.84,0,0,0,1.09.6c.43.19.91.39,1.45.6a18.45,18.45,0,0,1,2,.91,7.24,7.24,0,0,1,1.5,1.09,4.23,4.23,0,0,1,1,1.39,4.6,4.6,0,0,1,.33,1.81,4.54,4.54,0,0,1-.58,2.4,4.48,4.48,0,0,1-1.58,1.57,7.12,7.12,0,0,1-2.32.87,14.87,14.87,0,0,1-2.8.26,16.42,16.42,0,0,1-2.87-.24A9.61,9.61,0,0,1,351,276.46Z" transform="translate(-205.87 -170.3)"/><path class="cls-3" d="M376.92,277.42h-3.29v-7.19h-6v7.19h-3.28V259.77h3.28v7h6v-7h3.29Z" transform="translate(-205.87 -170.3)"/><path class="cls-3" d="M384.73,277.41a5.34,5.34,0,0,1-4.5-2.39,10.3,10.3,0,0,1-1.74-6.22,11.18,11.18,0,0,1,1.76-6.55,5.49,5.49,0,0,1,4.68-2.5,5.21,5.21,0,0,1,4.45,2.4,10.59,10.59,0,0,1,1.7,6.31,10.91,10.91,0,0,1-1.76,6.49A5.41,5.41,0,0,1,384.73,277.41Zm.12-14.35a2.73,2.73,0,0,0-2.42,1.52,7.82,7.82,0,0,0-.9,4,7.66,7.66,0,0,0,.9,4,2.65,2.65,0,0,0,4.73,0,7.66,7.66,0,0,0,.87-4,8.28,8.28,0,0,0-.85-4.13A2.59,2.59,0,0,0,384.85,263.06Z" transform="translate(-205.87 -170.3)"/><path class="cls-3" d="M397,271.32v6.08H393.1V259.75h6.08q6.51,0,6.51,5.62a5.45,5.45,0,0,1-1.87,4.31,7.3,7.3,0,0,1-5,1.64Zm0-8.52v5.5h1.53c2.06,0,3.1-.92,3.1-2.78s-1-2.72-3.1-2.72Z" transform="translate(-205.87 -170.3)"/></svg>